<svg width="12" height="12" viewBox="0 0 12 12" fill="none" xmlns="http://www.w3.org/2000/svg">
<g clip-path="url(#clip0_678_13536)">
<rect width="5.7479" height="5.14286" transform="matrix(1 0 0.000341717 1 3.17786 3.58105)" fill="white"/>
<path fill-rule="evenodd" clip-rule="evenodd" d="M7.89228 4.10672C7.98567 4.10925 8.07348 4.14259 8.1407 4.20665L8.46671 4.5254C8.61888 4.67386 8.59934 4.93298 8.42336 5.10545L5.56261 7.89945C5.42362 8.03525 5.16075 8.04503 5.01084 7.89945L3.68675 6.60643C3.51066 6.43432 3.49198 6.17546 3.64388 6.02725L3.96879 5.70878C4.12165 5.56032 4.38663 5.57838 4.56255 5.7498L5.28615 6.45658L7.54585 4.24905C7.64583 4.15235 7.7727 4.1041 7.89228 4.10672ZM7.21264 1.00058C7.02577 0.994033 6.82898 1.04299 6.62924 1.14782C6.19198 1.37744 5.86178 1.33031 5.47719 1.14782C5.27519 1.05172 5.0761 1.00389 4.89064 1.00931C4.58072 1.01908 4.30497 1.18028 4.09877 1.51647C3.83743 1.94273 3.52326 2.04973 3.1005 2.09337C2.49281 2.15499 2.10636 2.48873 2.09 3.10326C2.07707 3.60291 1.85922 3.8522 1.51464 4.10146C1.01947 4.45904 0.853196 4.94046 1.14585 5.48141C1.38418 5.92016 1.32076 6.24438 1.14625 6.63268C0.896641 7.19099 0.991079 7.6905 1.51598 8.01264C1.94104 8.27439 2.04839 8.58692 2.09201 9.01066C2.15436 9.61837 2.48859 10.0041 3.10321 10.0213C3.602 10.0355 3.85274 10.2518 4.10187 10.5973C4.47131 11.1112 4.93107 11.2517 5.48054 10.9673C5.92313 10.7389 6.24513 10.7875 6.6326 10.9673C7.1931 11.2285 7.64349 11.1112 8.01189 10.5973C8.26079 10.2519 8.51136 10.0354 9.01016 10.0213C9.62495 10.0042 9.95873 9.61846 10.0207 9.01066C10.0641 8.58692 10.1711 8.27439 10.596 8.01264C11.1202 7.69067 11.2157 7.19101 10.9648 6.63268C10.79 6.24438 10.727 5.92014 10.9644 5.48141C11.2574 4.94046 11.0909 4.45904 10.5947 4.10146C10.2492 3.8522 10.0327 3.60294 10.0186 3.10326C10.0025 2.48873 9.61518 2.15506 9.00745 2.09337C8.58379 2.04973 8.27095 1.94264 8.00879 1.51647C7.80296 1.18036 7.52265 1.01175 7.21264 1.00058Z" fill="url(#paint0_linear_678_13536)"/>
</g>
<defs>
<linearGradient id="paint0_linear_678_13536" x1="1.16885" y1="2.12356" x2="9.74919" y2="3.04826" gradientUnits="userSpaceOnUse">
<stop stop-color="#75CD72"/>
<stop offset="1" stop-color="#059E00"/>
</linearGradient>
<clipPath id="clip0_678_13536">
<rect width="12" height="12" fill="white" transform="matrix(1 0 0.000341717 1 0 0)"/>
</clipPath>
</defs>
</svg>
